<svg role="img" viewBox="0 0 24 24" xmlns="http://www.w3.org/2000/svg"><title>123 Pan</title><path d="M7.3 18.2h9.4a3.8 3.8 0 0 0 .2-7.6A5.2 5.2 0 0 0 7 9.2a3.6 3.6 0 0 0 .3 9Z" fill="#fff"/><path d="M8.1 12.4c.6-.2 1-.6 1.4-.7h.8v4.8H9v-3.3l-1 .4zm4.8.4c0-.2-.1-.4-.6-.4-.4 0-.8.2-1.2.4l-.3-1c.4-.2 1-.4 1.7-.4 1.2 0 1.8.6 1.8 1.3 0 .6-.3 1.1-1 1.4.6.2 1.2.7 1.2 1.6 0 1-.8 1.9-2.5 1.9-.7 0-1.4-.2-1.7-.4l.3-1.1c.3.2.8.4 1.3.4.6 0 1-.3 1-.8s-.5-.8-1.1-.8H12v-1h.2c.5 0 .8-.2.8-.7zm2.7-.3c.4-.3 1-.6 1.8-.6 1.2 0 2 .7 2 1.7 0 .8-.5 1.3-1 1.6.7.2 1.3.8 1.3 1.7 0 1.1-1 1.9-2.4 1.9-.8 0-1.4-.2-1.8-.4l.3-1c.3.2.8.4 1.3.4.6 0 1-.3 1-.8 0-.6-.6-.8-1.2-.8h-.2v-.9h.2c.5 0 1-.2 1-.7 0-.4-.3-.7-.8-.7-.4 0-.8.2-1.1.4z" fill="#ff7a00"/></svg>
