<svg role="img" viewBox="0 0 24 24" xmlns="http://www.w3.org/2000/svg"><title>WeCom</title><path d="M8.9 3.2C4.5 3.2 1 6.2 1 10c0 2 1 3.8 2.8 5.1l-.5 2 2.5-1.4c.9.2 1.9.3 3 .3 4.3 0 7.8-3 7.8-6.8S13.2 3.2 8.9 3.2Z" fill="#07C160"/><path d="M15.2 7.2c4.3 0 7.8 2.9 7.8 6.5 0 2-1.1 3.8-2.9 5l.5 1.9-2.4-1.3c-.8.2-1.8.3-2.8.3-4.3 0-7.8-2.9-7.8-6.5s3.4-5.9 7.6-5.9Z" fill="#2B7CFF"/><circle cx="6.9" cy="9" r="1" fill="#fff"/><circle cx="10.4" cy="9" r="1" fill="#fff"/><circle cx="13.2" cy="12.8" r="1" fill="#fff"/><circle cx="17" cy="12.8" r="1" fill="#fff"/></svg>
